<?xml version="1.0" standalone="no"?>
<!DOCTYPE svg PUBLIC "-//W3C//DTD SVG 20010904//EN"
 "http://www.w3.org/TR/2001/REC-SVG-20010904/DTD/svg10.dtd">
<svg version="1.0" xmlns="http://www.w3.org/2000/svg"
 width="700.000000pt" height="700.000000pt" viewBox="0 0 700.000000 700.000000"
 preserveAspectRatio="xMidYMid meet">
<metadata>
Created by potrace 1.11, written by Peter Selinger 2001-2013
</metadata>
<g transform="translate(0.000000,700.000000) scale(0.100000,-0.100000)"
fill="#000000" stroke="none">
<path d="M2860 6159 c-19 -4 -55 -10 -80 -14 -96 -13 -210 -50 -330 -108 -36
-17 -68 -31 -72 -29 -5 1 -8 -2 -8 -6 0 -13 -76 -53 -84 -44 -4 4 -6 2 -4 -4
2 -7 -22 -29 -52 -49 -30 -21 -59 -44 -63 -52 -4 -7 -15 -13 -23 -13 -8 0 -12
-4 -9 -10 3 -5 2 -10 -3 -10 -9 0 -91 -81 -129 -127 -10 -12 -26 -31 -35 -42
-10 -12 -18 -26 -18 -31 0 -6 -4 -10 -8 -10 -4 0 -23 -26 -42 -57 -19 -32 -37
-60 -40 -63 -9 -7 -24 -43 -22 -52 1 -5 -2 -8 -7 -8 -5 0 -12 -13 -16 -30 -4
-16 -11 -30 -17 -30 -6 0 -8 -7 -4 -15 3 -8 1 -15 -4 -15 -6 0 -10 -9 -10 -20
0 -11 -4 -20 -9 -20 -6 0 -8 -9 -6 -20 2 -11 0 -22 -6 -25 -5 -4 -9 -15 -9
-26 0 -10 -4 -19 -8 -19 -4 0 -8 -8 -9 -17 0 -10 -4 -29 -7 -43 -8 -32 -17
-81 -18 -100 0 -8 -5 -21 -11 -27 -6 -9 -6 -13 2 -13 7 0 9 -5 5 -12 -8 -12
-12 -328 -4 -328 3 0 6 -17 7 -38 2 -34 9 -77 13 -77 1 0 3 -7 5 -15 7 -27 15
-60 21 -82 3 -13 6 -29 6 -35 1 -7 6 -13 11 -13 6 0 8 -3 5 -6 -4 -3 0 -17 7
-31 8 -15 12 -30 10 -34 -3 -4 2 -12 10 -19 8 -7 15 -17 15 -23 0 -16 42 -101
54 -109 6 -4 7 -8 3 -8 -4 0 -3 -6 3 -12 10 -12 25 -34 62 -93 7 -11 19 -24
26 -28 6 -4 12 -12 12 -18 0 -18 120 -144 200 -209 30 -25 57 -47 60 -50 11
-12 139 -90 200 -122 123 -65 209 -93 380 -128 121 -24 373 -22 495 4 542 117
940 509 1061 1046 20 89 28 379 13 455 -5 28 -11 59 -13 70 -19 93 -83 290
-106 320 -4 6 -22 37 -39 70 -56 102 -137 206 -235 300 -109 104 -103 100
-193 160 -139 94 -359 184 -493 202 -25 3 -49 9 -55 13 -13 10 -340 9 -385 -1z"/>
<path d="M5930 3890 l-155 -5 0 -45 c1 -25 -1 -49 -3 -53 -2 -4 -4 -89 -4
-187 0 -127 -4 -180 -12 -180 -7 0 -7 -3 -1 -8 16 -11 17 -33 3 -50 -8 -9 -8
-13 -2 -9 8 4 11 -2 10 -18 0 -14 -5 -25 -10 -25 -5 0 -3 -6 3 -14 9 -10 9
-16 1 -21 -8 -5 -8 -10 0 -20 8 -9 8 -15 0 -20 -7 -4 -7 -12 0 -26 8 -14 7
-19 -2 -19 -9 0 -9 -3 0 -12 6 -6 8 -18 4 -27 -7 -14 -8 -37 -2 -51 7 -19 5
-50 -4 -50 -6 0 -5 -4 3 -9 9 -6 10 -11 2 -15 -8 -5 -8 -13 -1 -27 8 -14 7
-19 -2 -19 -9 0 -9 -3 2 -10 12 -8 12 -10 1 -10 -11 0 -11 -3 -1 -15 10 -12
10 -15 -1 -15 -9 0 -10 -3 -4 -8 14 -10 17 -32 4 -32 -8 0 -8 -5 1 -15 10 -12
10 -15 -1 -15 -11 0 -11 -2 1 -10 13 -9 13 -10 0 -10 -13 0 -13 -2 -1 -9 12
-8 12 -12 2 -25 -8 -9 -9 -16 -4 -16 5 0 9 -9 10 -20 1 -13 -2 -18 -9 -14 -7
4 -8 2 -4 -5 13 -21 16 -60 6 -66 -8 -5 -8 -11 0 -20 8 -9 8 -15 0 -20 -7 -4
-6 -13 2 -28 12 -23 12 -25 -3 -44 -7 -7 -6 -14 1 -18 8 -5 8 -10 0 -20 -8
-10 -8 -15 1 -20 8 -6 7 -10 -2 -16 -12 -7 -12 -9 0 -9 11 0 11 -3 1 -15 -9
-11 -9 -15 -1 -15 8 0 9 -5 2 -18 -7 -13 -6 -23 1 -30 9 -9 9 -12 -1 -12 -11
0 -11 -3 -1 -15 10 -12 10 -15 0 -15 -10 0 -10 -3 0 -15 10 -12 10 -15 0 -15
-10 0 -10 -3 -1 -14 7 -8 8 -17 3 -20 -10 -6 -9 -36 1 -53 4 -6 3 -14 -1 -17
-10 -6 -10 -46 1 -62 3 -6 3 -14 0 -18 -13 -13 -10 -58 3 -63 8 -3 11 -10 8
-15 -4 -6 4 -8 17 -7 13 2 30 0 37 -4 6 -5 12 -5 12 0 0 4 64 7 143 6 135 -2
143 -1 156 18 10 17 10 20 -1 13 -10 -6 -10 -5 -2 7 6 8 11 50 10 97 -1 45 2
82 6 82 4 0 3 13 -2 29 -6 21 -5 31 3 35 8 3 7 8 -3 15 -13 10 -13 11 0 11 13
0 13 1 0 10 -10 6 -11 10 -3 10 9 0 10 7 3 26 -6 14 -6 23 -2 20 5 -3 9 8 9
24 0 17 -5 27 -10 23 -6 -3 -7 -2 -4 4 12 19 16 94 5 87 -7 -5 -8 -2 -2 7 5 8
7 22 5 33 -2 12 1 16 10 11 8 -6 10 -4 3 6 -13 21 -14 39 -1 39 9 0 9 2 1 8
-14 9 -13 84 1 94 6 5 6 8 -1 8 -7 0 -10 13 -7 33 4 35 4 37 0 87 -2 19 1 41
6 48 6 7 6 12 0 12 -11 0 -10 50 1 68 4 7 3 12 -2 12 -5 0 -8 10 -6 23 1 12 3
29 3 37 1 23 38 42 60 31 12 -7 22 -6 30 2 9 9 14 8 21 -3 7 -10 10 -11 10 -2
0 6 7 12 15 12 10 0 15 10 15 30 0 17 4 30 9 30 5 0 9 11 10 25 3 48 4 55 14
55 5 0 6 7 3 16 -4 9 -1 23 5 30 6 8 8 14 3 14 -5 0 -2 5 6 10 12 8 12 10 1
10 -10 0 -11 3 -2 14 6 8 11 18 10 22 -1 5 0 11 1 14 15 39 -2 79 -25 60 -9
-8 -15 -8 -20 0 -5 8 -11 8 -21 -1 -11 -9 -14 -9 -14 1 0 10 -3 10 -14 1 -11
-9 -15 -9 -19 1 -4 11 -6 11 -6 0 -1 -9 -6 -10 -20 -2 -13 6 -22 7 -26 0 -3
-5 -17 0 -30 12 -19 16 -22 24 -13 30 7 4 9 8 3 8 -5 0 -10 11 -10 25 0 14 4
25 8 25 4 0 4 7 -1 17 -6 9 -6 29 -2 45 5 17 5 28 -1 28 -6 0 -7 5 -3 11 10
16 11 99 1 99 -4 0 -3 8 2 18 6 11 6 24 0 35 -7 12 -6 17 2 17 8 0 9 3 0 13
-6 8 -7 17 -3 21 4 5 -7 7 -23 5 -17 -2 -35 -1 -40 1 -6 3 -80 3 -165 0z"/>
<path d="M1150 3484 c0 -6 -12 -11 -27 -11 -16 0 -46 -4 -68 -8 -22 -4 -45 -7
-52 -8 -7 0 -10 -3 -8 -7 2 -4 -7 -12 -20 -18 -14 -7 -25 -16 -25 -22 0 -5 -3
-9 -7 -7 -5 1 -9 -1 -10 -6 -2 -4 -12 -17 -23 -29 -11 -12 -21 -30 -21 -40 -2
-26 -3 -32 -12 -45 -5 -7 -6 -17 -2 -22 3 -5 0 -13 -6 -17 -8 -4 -7 -9 2 -15
8 -5 9 -9 3 -9 -6 0 -10 -17 -9 -40 1 -23 -3 -40 -9 -40 -6 0 -5 -4 3 -9 10
-7 11 -13 1 -31 -8 -15 -8 -20 -1 -16 15 10 14 -7 -1 -22 -9 -9 -9 -12 -1 -12
7 0 11 -9 10 -20 -1 -11 -5 -20 -9 -20 -5 0 -5 -8 -1 -17 10 -22 10 -54 0 -71
-5 -6 -4 -12 2 -12 12 0 10 -27 -2 -47 -5 -8 -3 -13 3 -13 13 0 9 -32 -5 -42
-7 -5 -6 -11 1 -15 11 -9 12 -52 1 -70 -4 -7 -3 -15 3 -18 8 -5 7 -11 -1 -21
-9 -11 -9 -14 0 -14 8 0 9 -5 1 -19 -7 -14 -7 -20 2 -23 7 -3 8 -9 3 -18 -11
-17 -13 -60 -4 -60 9 0 6 -41 -5 -58 -4 -7 -2 -12 5 -12 8 0 9 -4 0 -13 -8
-10 -7 -17 1 -25 9 -9 9 -12 1 -12 -8 0 -9 -9 -3 -29 6 -21 5 -31 -3 -35 -8
-3 -7 -8 3 -15 13 -10 13 -11 0 -11 -13 0 -13 -1 0 -10 13 -9 13 -10 0 -10
-10 0 -11 -3 -4 -8 7 -4 8 -15 4 -27 -4 -11 -3 -30 1 -43 5 -13 5 -21 0 -18
-4 3 -8 -8 -7 -24 1 -17 6 -30 11 -30 7 0 7 -3 0 -8 -14 -10 -14 -65 1 -79 10
-10 13 -10 17 0 4 9 6 9 6 0 1 -9 8 -10 27 -3 14 6 23 7 21 2 -6 -9 45 -8 61
2 6 3 13 2 17 -4 4 -7 12 -7 26 0 13 7 19 7 19 0 0 -12 22 -9 32 5 5 6 8 5 8
-4 0 -11 3 -11 15 -1 8 7 15 8 15 3 0 -5 9 -9 20 -10 13 -1 18 2 14 9 -5 7 -2
8 7 3 18 -12 49 -14 49 -3 0 4 6 8 14 8 9 0 13 7 11 20 -2 11 1 20 6 20 6 0 6
8 -1 20 -8 15 -8 20 2 20 10 0 10 2 -1 9 -10 7 -10 10 -1 13 10 3 10 9 1 26
-8 15 -8 22 -1 22 7 0 8 6 0 19 -7 14 -7 22 0 26 8 5 7 12 -2 23 -7 9 -8 13
-2 9 12 -7 12 52 0 71 -3 6 -2 14 4 17 8 5 7 12 -2 23 -7 9 -8 13 -3 10 7 -4
10 65 10 214 0 121 3 222 8 225 4 2 3 12 -1 21 -14 30 -6 264 10 273 7 5 9 9
4 9 -5 0 -3 7 4 15 7 9 19 14 26 11 7 -3 15 -2 18 2 2 4 98 7 213 7 114 -1
213 0 219 2 11 4 11 26 -1 58 -4 11 -9 27 -12 35 -8 20 -12 40 -16 73 -2 16
-10 33 -18 38 -12 7 -12 9 0 9 11 0 9 6 -7 20 -12 11 -26 20 -32 20 -5 0 -10
5 -10 11 0 8 -5 8 -15 -1 -8 -7 -15 -8 -15 -3 0 5 -9 9 -20 9 -11 0 -20 -4
-20 -9 0 -5 -7 -4 -15 3 -12 10 -15 10 -15 0 0 -8 -4 -9 -12 -4 -15 11 -38 11
-55 1 -6 -4 -15 -3 -18 3 -4 7 -11 8 -18 1 -18 -14 -29 -14 -38 1 -7 11 -9 11
-9 -1 0 -10 -3 -11 -14 -2 -10 9 -16 9 -21 1 -5 -8 -10 -8 -20 0 -10 8 -15 8
-20 0 -5 -8 -10 -8 -20 0 -10 8 -15 8 -20 -1 -6 -8 -10 -7 -16 2 -7 12 -9 12
-9 0 0 -11 -3 -11 -15 -1 -11 9 -15 9 -15 1 0 -7 -5 -9 -12 -5 -18 12 -48 12
-55 1 -3 -5 -9 -3 -14 4 -5 8 -9 9 -9 3z"/>
<path d="M2310 3484 c0 -10 -20 -13 -97 -17 -13 -1 -23 -4 -23 -7 0 -5 -18 -9
-57 -12 -7 -1 -13 -5 -13 -10 0 -4 -7 -8 -16 -8 -16 0 -116 -53 -141 -75 -35
-30 -43 -35 -53 -35 -6 0 -8 -4 -5 -10 3 -5 1 -10 -4 -10 -14 0 -67 -60 -63
-72 1 -5 -2 -7 -7 -4 -14 9 -102 -146 -92 -162 1 -1 -5 -10 -14 -18 -12 -13
-13 -19 -4 -31 10 -11 10 -13 -1 -11 -9 2 -14 -6 -15 -19 0 -41 -66 -77 -87
-48 -5 7 -8 7 -8 0 0 -6 -29 -9 -70 -8 -38 1 -72 -3 -76 -8 -3 -5 -9 -7 -14
-4 -4 3 -6 -4 -3 -15 3 -11 9 -20 13 -20 4 0 6 -11 5 -25 -2 -14 1 -25 6 -25
6 0 7 -4 4 -10 -3 -5 -2 -10 2 -10 5 0 10 -8 11 -17 2 -20 5 -36 16 -74 7 -25
9 -25 118 -27 61 -1 114 -5 118 -7 5 -3 10 -2 12 3 1 4 38 5 81 2 42 -3 77 -3
77 0 0 6 2418 3 2442 -3 10 -3 18 -2 18 3 0 4 18 4 40 0 22 -4 40 -4 40 -1 0
4 18 5 40 3 22 -2 37 -8 34 -13 -3 -5 -1 -9 4 -9 11 0 10 -40 -2 -59 -5 -8 -5
-12 0 -8 5 3 9 -33 9 -84 0 -49 -2 -89 -5 -89 -7 0 -4 -76 4 -89 4 -6 3 -11
-1 -11 -5 0 -7 -25 -5 -56 2 -43 0 -54 -10 -48 -10 6 -10 5 -1 -7 7 -9 11 -36
9 -65 -2 -27 1 -54 6 -61 6 -7 5 -14 -3 -19 -8 -5 -9 -3 -4 6 6 9 4 11 -4 6
-9 -6 -8 -13 5 -27 9 -10 13 -19 7 -19 -5 0 -8 -12 -7 -27 8 -91 5 -153 -8
-153 -10 0 -9 -3 1 -9 8 -5 11 -16 8 -24 -3 -9 -1 -18 6 -21 8 -3 8 -5 -2 -5
-11 -1 -11 -4 -1 -16 7 -8 9 -15 4 -15 -11 0 -12 -150 -1 -167 4 -6 1 -14 -5
-16 -37 -15 28 -22 203 -22 189 1 192 1 200 23 6 15 5 22 -4 22 -8 0 -6 4 3
10 11 7 11 10 2 10 -9 0 -10 5 -4 16 5 9 6 32 2 50 -4 19 -5 34 -1 34 5 0 6
72 1 90 -4 16 -1 131 5 140 3 5 0 10 -7 10 -9 0 -9 3 2 10 8 5 10 10 4 10 -14
0 -13 32 1 42 6 5 5 8 -2 8 -9 0 -10 7 -3 25 5 14 6 25 2 25 -4 0 -7 58 -7
130 0 71 2 130 5 130 3 0 4 17 3 38 -3 40 -3 200 -1 244 1 15 5 25 9 22 4 -2
9 6 12 17 5 18 12 21 51 17 25 -2 46 0 46 3 0 4 18 3 40 -1 26 -5 41 -3 44 4
3 7 8 6 15 -4 6 -8 11 -10 11 -4 0 7 11 9 28 6 15 -2 24 -1 20 3 -4 4 -1 14 7
22 16 16 20 33 7 33 -4 0 -8 9 -8 20 0 11 3 20 6 20 3 0 6 9 6 20 0 11 -4 20
-9 20 -5 0 -4 7 3 15 9 11 9 15 1 15 -9 0 -9 5 0 21 8 16 8 23 -1 29 -9 6 -9
9 1 13 10 4 10 6 2 6 -7 1 -13 7 -13 15 0 8 -7 16 -15 20 -8 3 -15 2 -15 -2 0
-4 -9 -8 -20 -8 -11 0 -20 4 -20 7 0 8 -47 2 -61 -7 -4 -2 -11 1 -15 7 -4 8
-9 7 -15 -2 -8 -12 -11 -11 -19 1 -5 8 -10 10 -10 5 0 -6 -9 -11 -20 -11 -11
0 -20 4 -20 9 0 5 -6 5 -12 -1 -9 -7 -16 -6 -23 2 -12 13 -13 108 -2 117 5 3
10 15 11 25 2 10 9 18 15 16 6 -1 11 2 11 7 0 12 57 24 100 21 80 -5 109 -8
119 -14 5 -4 13 -1 17 5 4 8 3 9 -4 5 -7 -4 -12 -2 -12 3 0 6 7 11 16 11 13 0
14 3 5 13 -6 8 -8 17 -4 20 11 12 13 58 1 51 -7 -4 -7 0 -1 12 10 20 10 82 -1
109 -3 9 -2 13 4 10 6 -3 10 -2 10 4 0 5 -4 13 -10 16 -6 4 -5 13 2 24 9 15 8
22 -3 33 -19 19 -274 24 -262 5 5 -9 3 -9 -8 0 -15 12 -35 13 -54 2 -5 -3 -25
-6 -44 -8 -18 -1 -41 -6 -51 -11 -9 -5 -20 -6 -24 -3 -3 3 -6 2 -6 -4 0 -6
-10 -13 -22 -16 -13 -4 -27 -7 -33 -9 -5 -1 -27 -19 -47 -40 -21 -21 -42 -38
-48 -38 -5 0 -10 -9 -10 -20 0 -11 -4 -20 -10 -20 -5 0 -10 -9 -10 -21 0 -13
-4 -18 -12 -13 -7 4 -10 4 -6 0 4 -5 2 -20 -4 -35 -6 -14 -10 -36 -9 -48 0
-13 -3 -23 -8 -23 -5 0 -7 -9 -4 -20 3 -11 0 -26 -6 -34 -8 -10 -9 -16 -1 -21
5 -3 10 -11 10 -16 0 -6 -3 -8 -7 -6 -12 7 -10 -77 1 -85 6 -4 -1 -9 -15 -12
-35 -6 -79 -3 -79 6 0 4 -7 8 -16 8 -10 0 -14 6 -11 15 4 8 2 17 -3 20 -4 3
-7 16 -5 30 1 14 0 23 -3 20 -7 -7 -32 67 -26 77 3 4 -2 8 -10 8 -10 0 -13 6
-10 15 4 8 1 15 -5 15 -6 0 -11 6 -11 13 0 6 -11 25 -25 41 -13 16 -22 33 -19
37 3 5 -2 9 -10 9 -8 0 -17 9 -21 19 -3 11 -13 22 -21 25 -9 3 -12 11 -8 17 4
8 3 9 -4 5 -7 -4 -12 -2 -12 3 0 6 -7 11 -15 11 -9 0 -18 7 -21 15 -4 8 -10
12 -15 9 -5 -3 -9 0 -9 5 0 6 -6 11 -14 11 -8 0 -16 5 -18 11 -2 5 -11 11 -20
13 -10 1 -21 5 -24 9 -4 4 -15 7 -25 7 -9 0 -19 4 -21 10 -1 5 -18 10 -35 12
-18 1 -33 5 -33 9 0 4 -14 6 -31 5 -16 -1 -32 1 -34 5 -3 3 -18 5 -35 3 -23
-3 -29 0 -24 9 6 9 4 9 -8 -1 -13 -10 -17 -10 -21 0 -4 10 -6 10 -6 -1 -1 -11
-4 -11 -16 -1 -8 7 -15 8 -15 3 0 -5 -15 -9 -32 -10 -72 -3 -108 -8 -108 -17
0 -4 -11 -6 -25 -4 -13 3 -26 1 -27 -4 -2 -5 -13 -10 -26 -11 -12 0 -22 -5
-22 -9 0 -4 -7 -8 -16 -8 -17 0 -107 -50 -112 -62 -2 -4 -10 -8 -18 -8 -8 0
-14 -4 -14 -9 0 -5 -9 -13 -20 -16 -11 -4 -18 -10 -15 -15 3 -5 -4 -11 -15
-15 -11 -3 -20 -10 -20 -15 0 -5 -12 -21 -27 -35 -15 -14 -25 -25 -21 -25 4 0
-4 -12 -17 -26 -14 -15 -22 -30 -20 -34 3 -4 -2 -11 -11 -14 -8 -3 -12 -10 -9
-16 3 -5 2 -10 -3 -10 -6 0 -13 -7 -16 -16 -4 -9 -2 -13 5 -8 6 3 4 -5 -5 -19
-16 -23 -26 -56 -28 -84 -1 -7 -5 -13 -10 -13 -4 0 -8 -9 -8 -19 0 -24 -24
-32 -87 -31 -73 1 -83 3 -77 12 3 4 1 8 -3 8 -5 0 -10 12 -11 26 -1 15 -7 33
-13 40 -9 10 -8 14 0 14 8 0 6 8 -4 23 -8 13 -12 27 -8 30 3 4 1 7 -5 7 -7 0
-12 11 -12 25 0 14 -5 25 -12 25 -6 0 -8 3 -5 6 4 4 -2 19 -13 34 -11 15 -17
30 -13 33 3 4 -2 9 -11 13 -9 3 -16 12 -16 20 0 8 -8 14 -17 15 -10 0 -13 3
-7 5 14 6 -61 84 -82 84 -8 0 -13 4 -10 9 4 5 -7 15 -23 22 -16 7 -28 16 -26
19 2 3 -6 7 -17 7 -12 1 -24 6 -27 10 -3 4 -15 10 -26 11 -11 2 -23 9 -26 14
-4 6 -11 8 -16 5 -5 -3 -22 0 -37 8 -14 8 -24 10 -21 5 4 -6 1 -10 -4 -10 -6
0 -11 5 -11 11 0 7 -12 10 -30 7 -16 -3 -30 -1 -30 3 0 5 -6 6 -14 3 -8 -3
-24 -1 -35 5 -14 8 -22 8 -26 1 -5 -8 -11 -8 -20 0 -10 8 -15 8 -20 -1 -6 -8
-10 -7 -16 2 -5 8 -9 9 -9 3z m120 -275 c0 -3 11 -5 25 -3 14 1 31 -4 39 -11
7 -8 16 -11 20 -8 3 4 6 1 6 -7 0 -9 3 -10 14 -1 11 9 15 7 19 -9 3 -11 13
-20 22 -20 9 0 14 -4 11 -9 -3 -5 1 -11 9 -15 8 -3 15 -13 15 -21 0 -9 5 -13
10 -10 6 3 10 -3 10 -14 0 -11 5 -23 10 -26 6 -3 10 -15 10 -26 0 -10 3 -19 8
-19 4 0 8 -18 9 -40 2 -25 -1 -39 -7 -35 -6 3 -10 3 -10 -2 0 -4 -126 -8 -280
-8 -180 0 -280 4 -280 10 0 6 -5 3 -10 -5 -8 -13 -10 -12 -10 3 0 11 -4 15
-12 11 -8 -5 -9 0 -4 17 5 13 8 32 9 42 1 9 5 17 10 17 4 0 6 4 2 9 -3 5 -1
12 5 16 6 4 7 11 4 17 -4 7 -2 8 4 4 11 -6 16 6 13 27 0 4 6 7 15 7 8 0 13 3
11 8 -2 4 4 15 15 25 10 9 18 14 18 10 0 -5 5 0 11 10 6 9 14 15 20 12 5 -4 9
-2 9 3 0 13 56 35 69 28 5 -4 12 -2 16 4 4 6 11 8 16 5 5 -4 9 -2 9 2 0 5 27
9 60 8 33 0 60 -3 60 -6z m1460 0 c0 -4 9 -5 20 -2 11 3 20 1 20 -4 0 -5 10
-10 22 -10 13 -1 24 -7 26 -13 2 -5 8 -8 13 -4 5 3 12 -2 15 -10 3 -9 13 -16
22 -16 8 0 12 -3 9 -7 -4 -3 2 -13 13 -20 11 -8 18 -19 15 -24 -4 -5 1 -9 10
-9 10 0 13 -5 9 -12 -4 -6 1 -17 11 -25 11 -7 15 -13 11 -13 -5 0 -3 -7 4 -15
7 -9 10 -18 7 -22 -4 -3 -1 -13 6 -21 10 -13 9 -14 -3 -7 -12 7 -13 6 -3 -6 9
-11 9 -18 0 -29 -10 -13 -56 -15 -300 -15 -158 0 -287 4 -287 8 0 5 -4 6 -9 3
-5 -3 -11 3 -14 14 -3 11 -1 20 3 20 5 0 7 9 5 20 -2 11 0 22 6 25 5 4 9 15 9
26 0 10 5 19 10 19 6 0 10 5 10 11 0 18 97 112 108 105 6 -3 12 -1 14 6 4 10
21 15 71 20 9 1 17 5 17 8 0 3 29 5 65 5 36 1 65 -3 65 -6z"/>
<path d="M5320 3482 c-5 -2 -8 -8 -4 -13 3 -5 1 -9 -5 -9 -6 0 -8 -7 -4 -16 3
-9 0 -20 -8 -25 -8 -5 -9 -9 -3 -9 12 0 13 -58 1 -77 -5 -8 -3 -13 3 -13 6 0
8 -5 4 -11 -4 -7 -6 -35 -5 -63 2 -75 3 -86 13 -80 4 3 8 1 8 -5 0 -14 349
-11 357 3 12 18 12 86 0 79 -6 -4 -7 -1 -1 8 11 17 12 229 2 223 -5 -3 -8 -1
-8 3 0 8 -327 12 -350 5z"/>
<path d="M5308 3058 c-7 -4 -9 -10 -6 -14 4 -4 3 -15 -3 -25 -7 -14 -6 -19 3
-19 8 0 9 -3 1 -11 -6 -6 -8 -23 -3 -43 4 -19 3 -41 -2 -50 -6 -11 -5 -16 3
-16 9 0 9 -3 0 -14 -8 -10 -9 -16 -1 -21 7 -4 7 -12 0 -26 -8 -14 -7 -19 2
-19 8 0 9 -3 1 -11 -6 -6 -8 -23 -3 -43 4 -19 3 -41 -2 -50 -6 -10 -5 -16 2
-16 6 0 8 -5 4 -12 -11 -17 -11 -569 -1 -575 5 -3 6 -11 3 -19 -4 -12 -2 -12
14 -4 15 8 20 8 20 -2 0 -10 2 -10 9 0 11 19 15 19 34 3 10 -7 17 -10 17 -5 0
12 113 11 122 -1 5 -7 8 -6 8 0 0 7 22 9 60 7 97 -6 95 -9 96 208 0 117 -4
188 -11 192 -6 5 -6 8 0 8 14 0 15 150 1 150 -8 0 -8 3 -1 8 12 8 15 423 3
416 -4 -3 -8 -1 -8 4 0 10 -345 11 -362 0z"/>
<path d="M1804 2609 c-2 -4 -15 -4 -29 -2 -13 3 -37 2 -52 -2 -21 -5 -24 -8
-12 -16 10 -6 10 -9 1 -9 -9 0 -10 -5 -3 -19 6 -10 7 -21 4 -25 -3 -3 -1 -6 6
-6 7 0 10 -4 6 -9 -3 -5 -1 -12 4 -16 5 -3 8 -14 6 -25 -2 -11 0 -20 4 -20 9
0 26 -48 23 -62 -1 -5 5 -8 13 -8 8 0 15 -7 15 -15 0 -19 9 -31 82 -103 73
-72 77 -75 116 -92 17 -8 32 -19 32 -24 0 -4 7 -6 15 -2 9 3 15 0 15 -8 0 -7
7 -13 15 -14 8 -1 22 -3 30 -4 8 -1 15 -4 15 -8 0 -4 6 -7 13 -8 6 0 23 -3 37
-7 14 -3 30 -7 35 -8 6 -2 16 -6 23 -10 7 -5 12 -3 12 3 0 7 5 8 13 3 6 -4 21
-8 32 -8 11 0 26 -5 34 -9 10 -6 12 -5 7 2 -4 7 -2 12 3 12 6 0 11 -6 11 -12
0 -8 3 -9 8 -3 9 13 42 16 42 3 0 -5 6 -6 13 -1 6 4 32 9 57 11 68 4 70 5 70
16 0 6 4 5 9 -3 6 -9 11 -10 15 -2 4 6 17 11 30 11 12 0 26 3 30 8 4 4 11 7
14 7 22 1 101 39 96 46 -5 8 17 14 39 10 4 0 7 3 7 9 0 5 12 16 28 24 15 8 24
15 20 16 -4 0 11 18 32 40 22 23 40 48 40 56 0 8 4 13 9 9 6 -3 17 10 27 30 9
19 20 33 24 30 5 -3 7 6 5 20 -1 14 4 29 12 34 8 4 14 11 14 14 -1 4 -1 8 0
10 7 25 6 47 -3 53 -7 5 -8 3 -3 -7 7 -11 6 -12 -6 -3 -8 7 -25 11 -39 10 -14
-1 -39 1 -57 5 -20 4 -34 3 -37 -5 -3 -7 -5 -6 -5 3 -1 11 -4 11 -16 1 -12
-10 -15 -10 -15 0 0 10 -3 10 -14 1 -9 -7 -17 -8 -20 -2 -3 5 -15 7 -26 4 -11
-3 -27 0 -35 7 -13 11 -14 10 -9 -3 4 -12 1 -15 -15 -12 -12 2 -21 -1 -21 -9
0 -7 -7 -21 -16 -32 -8 -10 -12 -13 -8 -5 4 9 3 12 -4 7 -6 -4 -8 -14 -5 -24
3 -9 3 -14 -1 -11 -4 4 -18 -4 -31 -17 -13 -13 -31 -24 -40 -24 -8 0 -15 -5
-15 -11 0 -6 -7 -9 -15 -5 -8 3 -15 1 -15 -4 0 -6 -6 -10 -12 -10 -7 0 -25 -6
-39 -14 -15 -8 -32 -10 -40 -5 -7 4 -18 5 -23 1 -13 -8 -76 -10 -76 -2 0 3
-12 7 -27 8 -16 1 -30 7 -31 12 -2 6 -8 8 -13 4 -5 -3 -9 0 -9 5 0 6 -9 11
-20 11 -11 0 -20 5 -20 11 0 5 -4 7 -10 4 -5 -3 -10 0 -10 8 0 8 -11 22 -25
31 -14 9 -23 21 -20 26 4 6 -1 10 -10 10 -11 0 -15 5 -11 15 3 8 1 15 -4 15
-6 0 -10 6 -10 14 0 8 -8 28 -17 45 -17 28 -22 31 -73 31 -30 1 -86 2 -123 3
-38 1 -71 -1 -73 -4z"/>
<path d="M3199 2609 c-30 -7 -64 -29 -43 -29 5 0 11 -14 12 -32 2 -17 7 -37
13 -44 6 -7 8 -18 4 -24 -3 -5 -1 -10 5 -10 6 0 9 -4 5 -9 -3 -5 2 -17 12 -26
9 -10 17 -25 18 -35 1 -10 9 -25 18 -34 8 -9 19 -25 22 -36 4 -11 11 -18 16
-15 5 4 9 -1 9 -9 0 -8 10 -18 21 -21 17 -6 19 -9 8 -16 -11 -7 -10 -9 4 -9
10 0 20 -7 23 -15 4 -8 13 -15 21 -15 8 0 11 -4 8 -10 -3 -5 1 -10 10 -10 8 0
18 -6 21 -14 3 -9 13 -12 22 -9 9 4 14 3 10 -2 -12 -13 121 -72 178 -80 16 -2
29 -4 29 -5 0 -4 46 -10 93 -12 28 -1 52 -6 52 -11 0 -6 5 -5 13 0 6 5 40 9
75 9 35 -1 66 2 69 7 2 4 12 2 21 -5 12 -10 14 -10 8 0 -4 6 -4 13 1 13 4 1
23 3 42 5 19 2 39 8 46 14 6 5 15 7 18 3 4 -3 7 -1 7 5 0 7 3 11 8 11 14 -3
72 23 72 33 0 5 5 6 10 3 6 -3 10 -2 10 4 0 6 11 13 25 17 14 3 22 10 19 16
-3 5 3 12 15 15 12 3 21 9 21 13 0 5 12 21 28 37 38 40 85 103 75 103 -4 0 0
5 10 11 9 6 15 14 12 20 -4 5 -1 9 5 9 6 0 8 5 5 10 -3 6 -1 10 5 10 7 0 10 7
7 15 -4 8 -2 17 4 21 6 3 8 12 5 20 -3 8 0 14 6 14 6 0 8 3 5 6 -4 4 -35 8
-69 10 -108 7 -248 10 -244 6 2 -2 -11 -19 -30 -38 -19 -19 -32 -34 -29 -34 3
0 -3 -8 -12 -18 -10 -11 -21 -17 -25 -15 -5 2 -8 -1 -8 -6 0 -6 -3 -10 -7 -9
-14 3 -43 -14 -38 -22 3 -5 -4 -6 -15 -3 -12 3 -20 0 -20 -7 0 -7 -7 -10 -15
-7 -8 4 -17 3 -19 -2 -3 -4 -15 -7 -28 -6 -13 1 -29 -2 -35 -8 -9 -6 -13 -6
-13 2 0 8 -5 9 -19 1 -14 -7 -22 -7 -26 1 -4 6 -13 8 -21 5 -7 -3 -16 -1 -19
5 -4 5 -11 7 -16 3 -12 -7 -69 17 -69 30 0 4 -6 6 -12 4 -11 -4 -100 72 -90
76 2 0 -2 15 -9 31 -7 17 -13 35 -15 42 -4 23 -29 48 -51 51 -46 6 -253 7
-284 1z"/>
</g>
</svg>
